<?xml version="1.0" encoding="UTF-8" standalone="no"?>
<!DOCTYPE svg PUBLIC "-//W3C//DTD SVG 1.1//EN"
 "http://www.w3.org/Graphics/SVG/1.1/DTD/svg11.dtd">
<!-- Generated by graphviz version 10.0.1 (0)
 -->
<!-- Title: G Pages: 1 -->
<svg width="1356px" height="1110px"
 viewBox="0.00 0.00 1356.00 1109.75" xmlns="http://www.w3.org/2000/svg" xmlns:xlink="http://www.w3.org/1999/xlink">
<g id="graph0" class="graph" transform="scale(1 1) rotate(0) translate(4 1105.75)">
<title>G</title>
<text text-anchor="middle" x="674" y="-7.95" font-family="Times,serif" font-size="14.00">Deterload Dependency Graph</text>
<g id="clust1" class="cluster">
<title>cluster_builder</title>
<polygon fill="#f5f5f5" stroke="#666666" stroke-width="2" points="8,-366.5 8,-992.5 1162,-992.5 1162,-366.5 8,-366.5"/>
<text text-anchor="middle" x="585" y="-975.2" font-family="Times,serif" font-size="14.00">builder</text>
</g>
<g id="clust2" class="cluster">
<title>cluster_imgBuilder</title>
<polygon fill="#cce5ff" stroke="#666666" stroke-width="2" points="16,-675.75 16,-959.25 1143,-959.25 1143,-675.75 16,-675.75"/>
<text text-anchor="middle" x="579.5" y="-941.95" font-family="Times,serif" font-size="14.00">imgBuilder</text>
</g>
<g id="clust3" class="cluster">
<title>cluster_gcpt</title>
<polygon fill="#dae8fc" stroke="#6c8ebf" stroke-width="3" points="24,-683.75 24,-926 1124,-926 1124,-683.75 24,-683.75"/>
<text text-anchor="middle" x="574" y="-908.7" font-family="Times,serif" font-size="14.00">gcpt</text>
</g>
<g id="clust4" class="cluster">
<title>cluster_opensbi</title>
<polygon fill="#dae8fc" stroke="#6c8ebf" stroke-width="2" points="32,-691.75 32,-892.75 1108,-892.75 1108,-691.75 32,-691.75"/>
<text text-anchor="middle" x="570" y="-875.45" font-family="Times,serif" font-size="14.00">opensbi</text>
</g>
<g id="clust5" class="cluster">
<title>cluster_linux</title>
<polygon fill="#dae8fc" stroke="#6c8ebf" stroke-width="2" points="241,-699.75 241,-859.5 1100,-859.5 1100,-699.75 241,-699.75"/>
<text text-anchor="middle" x="670.5" y="-842.2" font-family="Times,serif" font-size="14.00">linux</text>
</g>
<g id="clust6" class="cluster">
<title>cluster_initramfs</title>
<polygon fill="#dae8fc" stroke="#6c8ebf" stroke-width="2" points="260,-707.75 260,-826.25 984,-826.25 984,-707.75 260,-707.75"/>
<text text-anchor="middle" x="622" y="-808.95" font-family="Times,serif" font-size="14.00">initramfs</text>
</g>
<g id="clust7" class="cluster">
<title>cluster_base</title>
<polygon fill="#dae8fc" stroke="#6c8ebf" stroke-width="2" points="279,-715.75 279,-793 483,-793 483,-715.75 279,-715.75"/>
<text text-anchor="middle" x="381" y="-775.7" font-family="Times,serif" font-size="14.00">base</text>
</g>
<g id="clust8" class="cluster">
<title>cluster_overlays</title>
<polygon fill="#dae8fc" stroke="#6c8ebf" stroke-width="2" points="491,-715.75 491,-793 976,-793 976,-715.75 491,-715.75"/>
<text text-anchor="middle" x="733.5" y="-775.7" font-family="Times,serif" font-size="14.00">overlays</text>
</g>
<g id="clust9" class="cluster">
<title>cluster_cptBuilder</title>
<polygon fill="#f8cecc" stroke="#b85450" stroke-width="2" points="906,-374.5 906,-667.75 1154,-667.75 1154,-374.5 906,-374.5"/>
<text text-anchor="middle" x="1030" y="-650.45" font-family="Times,serif" font-size="14.00">cptBuilder</text>
</g>
<g id="clust10" class="cluster">
<title>cluster_inputs</title>
<polygon fill="none" stroke="none" stroke-width="2" points="876,-1000.5 876,-1093.75 995,-1093.75 995,-1000.5 876,-1000.5"/>
</g>
<g id="clust11" class="cluster">
<title>cluster_benchmark</title>
<polygon fill="#d5e8d4" stroke="#82b366" stroke-width="2" points="884,-1008.5 884,-1085.75 979,-1085.75 979,-1008.5 884,-1008.5"/>
<text text-anchor="middle" x="931.5" y="-1068.45" font-family="Times,serif" font-size="14.00">benchmark</text>
</g>
<g id="clust12" class="cluster">
<title>cluster_outputs</title>
<polygon fill="none" stroke="none" stroke-width="2" points="8,-33.25 8,-358.5 1340,-358.5 1340,-33.25 8,-33.25"/>
</g>
<g id="clust13" class="cluster">
<title>cluster_output</title>
<polygon fill="#ffe6cc" stroke="#d79b00" stroke-width="2" points="222,-41.25 222,-350.5 1048,-350.5 1048,-41.25 222,-41.25"/>
<text text-anchor="middle" x="635" y="-333.2" font-family="Times,serif" font-size="14.00">output</text>
</g>
<g id="clust14" class="cluster">
<title>cluster__level0_</title>
<polygon fill="none" stroke="none" stroke-width="2" points="926,-265.25 926,-317.25 1040,-317.25 1040,-265.25 926,-265.25"/>
</g>
<g id="clust15" class="cluster">
<title>cluster__level1_</title>
<polygon fill="none" stroke="none" stroke-width="2" points="230,-193.25 230,-245.25 1040,-245.25 1040,-193.25 230,-193.25"/>
</g>
<g id="clust16" class="cluster">
<title>cluster__level2_</title>
<polygon fill="none" stroke="none" stroke-width="2" points="230,-121.25 230,-173.25 944,-173.25 944,-121.25 230,-121.25"/>
</g>
<g id="clust17" class="cluster">
<title>cluster__level3_</title>
<polygon fill="none" stroke="none" stroke-width="2" points="330,-49.25 330,-101.25 1040,-101.25 1040,-49.25 330,-49.25"/>
</g>
<!-- cluster_builder_connect_node_ -->
<g id="node1" class="node">
<title>cluster_builder_connect_node_</title>
</g>
<!-- cluster_imgBuilder_connect_node_ -->
<g id="node2" class="node">
<title>cluster_imgBuilder_connect_node_</title>
</g>
<!-- cluster_cptBuilderqemu -->
<g id="node20" class="node">
<title>cluster_cptBuilderqemu</title>
<polygon fill="none" stroke="black" points="1074,-634.5 1020,-634.5 1020,-598.5 1074,-598.5 1074,-634.5"/>
<text text-anchor="middle" x="1047" y="-611.83" font-family="Times,serif" font-size="14.00">qemu</text>
</g>
<!-- cluster_imgBuilder_connect_node_&#45;&gt;cluster_cptBuilderqemu -->
<g id="edge64" class="edge">
<title>cluster_imgBuilder_connect_node_&#45;&gt;cluster_cptBuilderqemu</title>
<path fill="none" stroke="none" stroke-width="2" d="M1088.59,-675.75C1080.9,-664.97 1073.3,-654.33 1066.74,-645.15"/>
<polygon fill="none" stroke="none" stroke-width="2" points="1069.85,-643.49 1061.2,-637.38 1064.16,-647.55 1069.85,-643.49"/>
</g>
<!-- cluster__level2_img -->
<g id="node48" class="node">
<title>cluster__level2_img</title>
<polygon fill="#cce5ff" stroke="#666666" points="918,-165.25 864,-165.25 864,-129.25 918,-129.25 918,-165.25"/>
<text text-anchor="middle" x="891" y="-142.57" font-family="Times,serif" font-size="14.00">img</text>
</g>
<!-- cluster_imgBuilder_connect_node_&#45;&gt;cluster__level2_img -->
<g id="edge56" class="edge">
<title>cluster_imgBuilder_connect_node_&#45;&gt;cluster__level2_img</title>
<path fill="none" stroke="#666666" stroke-width="2" stroke-opacity="0.066667" d="M1107.91,-675.75C1052.8,-541.47 930.16,-242.67 898.55,-165.65"/>
</g>
<!-- cluster_gcpt_connect_node_ -->
<g id="node3" class="node">
<title>cluster_gcpt_connect_node_</title>
</g>
<!-- cluster_cptBuilderstage1&#45;profiling -->
<g id="node22" class="node">
<title>cluster_cptBuilderstage1&#45;profiling</title>
<polygon fill="none" stroke="black" points="1126.25,-562.5 1013.75,-562.5 1013.75,-526.5 1126.25,-526.5 1126.25,-562.5"/>
<text text-anchor="middle" x="1070" y="-539.83" font-family="Times,serif" font-size="14.00">stage1&#45;profiling</text>
</g>
<!-- cluster_gcpt_connect_node_&#45;&gt;cluster_cptBuilderstage1&#45;profiling -->
<g id="edge9" class="edge">
<title>cluster_gcpt_connect_node_&#45;&gt;cluster_cptBuilderstage1&#45;profiling</title>
<path fill="none" stroke="#6c8ebf" stroke-width="3" d="M1102.48,-683.75C1094.32,-648.8 1084.25,-605.59 1077.5,-576.66"/>
<polygon fill="#6c8ebf" stroke="#6c8ebf" stroke-width="3" points="1080.95,-576.04 1075.27,-567.09 1074.13,-577.63 1080.95,-576.04"/>
</g>
<!-- cluster_cptBuilderstage3&#45;checkpoint -->
<g id="node25" class="node">
<title>cluster_cptBuilderstage3&#45;checkpoint</title>
<polygon fill="none" stroke="black" points="1056.88,-418.5 927.12,-418.5 927.12,-382.5 1056.88,-382.5 1056.88,-418.5"/>
<text text-anchor="middle" x="992" y="-395.82" font-family="Times,serif" font-size="14.00">stage3&#45;checkpoint</text>
</g>
<!-- cluster_gcpt_connect_node_&#45;&gt;cluster_cptBuilderstage3&#45;checkpoint -->
<g id="edge10" class="edge">
<title>cluster_gcpt_connect_node_&#45;&gt;cluster_cptBuilderstage3&#45;checkpoint</title>
<path fill="none" stroke="#6c8ebf" stroke-width="3" d="M1094.93,-683.75C1068.61,-611.34 1024.53,-490.02 1003.65,-432.55"/>
<polygon fill="#6c8ebf" stroke="#6c8ebf" stroke-width="3" points="1006.97,-431.45 1000.26,-423.24 1000.39,-433.84 1006.97,-431.45"/>
</g>
<!-- cluster__level2_gcpt -->
<g id="node47" class="node">
<title>cluster__level2_gcpt</title>
<polygon fill="#dae8fc" stroke="#6c8ebf" points="846,-165.25 792,-165.25 792,-129.25 846,-129.25 846,-165.25"/>
<text text-anchor="middle" x="819" y="-142.57" font-family="Times,serif" font-size="14.00">gcpt</text>
</g>
<!-- cluster_gcpt_connect_node_&#45;&gt;cluster__level2_gcpt -->
<g id="edge55" class="edge">
<title>cluster_gcpt_connect_node_&#45;&gt;cluster__level2_gcpt</title>
<path fill="none" stroke="#6c8ebf" stroke-width="3" stroke-opacity="0.066667" d="M1087.03,-683.75C1022.08,-553.74 867.45,-244.24 828.19,-165.65"/>
</g>
<!-- cluster_opensbi_connect_node_ -->
<g id="node4" class="node">
<title>cluster_opensbi_connect_node_</title>
</g>
<!-- cluster__level2_opensbi -->
<g id="node46" class="node">
<title>cluster__level2_opensbi</title>
<polygon fill="#dae8fc" stroke="#6c8ebf" points="293.75,-165.25 238.25,-165.25 238.25,-129.25 293.75,-129.25 293.75,-165.25"/>
<text text-anchor="middle" x="266" y="-142.57" font-family="Times,serif" font-size="14.00">opensbi</text>
</g>
<!-- cluster_opensbi_connect_node_&#45;&gt;cluster__level2_opensbi -->
<g id="edge54" class="edge">
<title>cluster_opensbi_connect_node_&#45;&gt;cluster__level2_opensbi</title>
<path fill="none" stroke="#000000" stroke-width="2" stroke-opacity="0.066667" d="M59.01,-691.75C106.46,-566.93 228.5,-245.9 259.01,-165.65"/>
</g>
<!-- cluster_opensbidts -->
<g id="node5" class="node">
<title>cluster_opensbidts</title>
<polygon fill="none" stroke="black" points="112,-759.75 58,-759.75 58,-723.75 112,-723.75 112,-759.75"/>
<text text-anchor="middle" x="85" y="-737.08" font-family="Times,serif" font-size="14.00">dts</text>
</g>
<!-- cluster_opensbicommon&#45;build -->
<g id="node6" class="node">
<title>cluster_opensbicommon&#45;build</title>
<polygon fill="none" stroke="black" points="230.25,-759.75 129.75,-759.75 129.75,-723.75 230.25,-723.75 230.25,-759.75"/>
<text text-anchor="middle" x="180" y="-737.08" font-family="Times,serif" font-size="14.00">common&#45;build</text>
</g>
<!-- cluster_opensbidts&#45;&gt;cluster_opensbicommon&#45;build -->
<g id="edge1" class="edge">
<title>cluster_opensbidts&#45;&gt;cluster_opensbicommon&#45;build</title>
<path fill="none" stroke="#000000" stroke-opacity="0.266667" d="M112.46,-741.75C114.31,-741.75 116.15,-741.75 118,-741.75"/>
<polygon fill="#000000" fill-opacity="0.266667" stroke="#000000" stroke-opacity="0.266667" points="117.83,-745.25 127.83,-741.75 117.83,-738.25 117.83,-745.25"/>
</g>
<!-- cluster__level2_dts -->
<g id="node44" class="node">
<title>cluster__level2_dts</title>
<polygon fill="#dae8fc" stroke="#6c8ebf" points="366,-165.25 312,-165.25 312,-129.25 366,-129.25 366,-165.25"/>
<text text-anchor="middle" x="339" y="-142.57" font-family="Times,serif" font-size="14.00">dts</text>
</g>
<!-- cluster_opensbidts&#45;&gt;cluster__level2_dts -->
<g id="edge52" class="edge">
<title>cluster_opensbidts&#45;&gt;cluster__level2_dts</title>
<path fill="none" stroke="#000000" stroke-opacity="0.066667" d="M92.88,-723.31C130.73,-634.72 293.57,-253.59 331.21,-165.48"/>
</g>
<!-- cluster__level2_opensbi&#45;common&#45;build -->
<g id="node45" class="node">
<title>cluster__level2_opensbi&#45;common&#45;build</title>
<polygon fill="#dae8fc" stroke="#6c8ebf" points="544.25,-165.25 383.75,-165.25 383.75,-129.25 544.25,-129.25 544.25,-165.25"/>
<text text-anchor="middle" x="464" y="-142.57" font-family="Times,serif" font-size="14.00">opensbi&#45;common&#45;build</text>
</g>
<!-- cluster_opensbicommon&#45;build&#45;&gt;cluster__level2_opensbi&#45;common&#45;build -->
<g id="edge53" class="edge">
<title>cluster_opensbicommon&#45;build&#45;&gt;cluster__level2_opensbi&#45;common&#45;build</title>
<path fill="none" stroke="#000000" stroke-opacity="0.066667" d="M188.81,-723.31C231.13,-634.72 413.2,-253.59 455.29,-165.48"/>
</g>
<!-- cluster_linux_connect_node_ -->
<g id="node7" class="node">
<title>cluster_linux_connect_node_</title>
</g>
<!-- cluster__level2_linux -->
<g id="node43" class="node">
<title>cluster__level2_linux</title>
<polygon fill="#dae8fc" stroke="#6c8ebf" points="616,-165.25 562,-165.25 562,-129.25 616,-129.25 616,-165.25"/>
<text text-anchor="middle" x="589" y="-142.57" font-family="Times,serif" font-size="14.00">linux</text>
</g>
<!-- cluster_linux_connect_node_&#45;&gt;cluster__level2_linux -->
<g id="edge51" class="edge">
<title>cluster_linux_connect_node_&#45;&gt;cluster__level2_linux</title>
<path fill="none" stroke="#000000" stroke-width="2" stroke-opacity="0.066667" d="M273.02,-699.75C340.83,-581.18 531.85,-247.18 578.58,-165.46"/>
</g>
<!-- cluster_initramfs_connect_node_ -->
<g id="node8" class="node">
<title>cluster_initramfs_connect_node_</title>
</g>
<!-- cluster__level1_initramfs -->
<g id="node40" class="node">
<title>cluster__level1_initramfs</title>
<polygon fill="#dae8fc" stroke="#6c8ebf" points="303.62,-237.25 238.38,-237.25 238.38,-201.25 303.62,-201.25 303.62,-237.25"/>
<text text-anchor="middle" x="271" y="-214.57" font-family="Times,serif" font-size="14.00">initramfs</text>
</g>
<!-- cluster_initramfs_connect_node_&#45;&gt;cluster__level1_initramfs -->
<g id="edge49" class="edge">
<title>cluster_initramfs_connect_node_&#45;&gt;cluster__level1_initramfs</title>
<path fill="none" stroke="#000000" stroke-width="2" stroke-opacity="0.066667" d="M268.2,-707.75C268.77,-607.27 270.46,-313.95 270.89,-237.59"/>
</g>
<!-- cluster_base_connect_node_ -->
<g id="node9" class="node">
<title>cluster_base_connect_node_</title>
</g>
<!-- cluster__level1_initramfs_base -->
<g id="node35" class="node">
<title>cluster__level1_initramfs_base</title>
<polygon fill="#dae8fc" stroke="#6c8ebf" points="426.5,-237.25 321.5,-237.25 321.5,-201.25 426.5,-201.25 426.5,-237.25"/>
<text text-anchor="middle" x="374" y="-214.57" font-family="Times,serif" font-size="14.00">initramfs_base</text>
</g>
<!-- cluster_base_connect_node_&#45;&gt;cluster__level1_initramfs_base -->
<g id="edge44" class="edge">
<title>cluster_base_connect_node_&#45;&gt;cluster__level1_initramfs_base</title>
<path fill="none" stroke="#000000" stroke-width="2" stroke-opacity="0.066667" d="M291.33,-715.75C306.62,-623.92 357.88,-316.09 370.95,-237.59"/>
</g>
<!-- cluster_basegen_init_cpio -->
<g id="node10" class="node">
<title>cluster_basegen_init_cpio</title>
<polygon fill="none" stroke="black" points="398.5,-759.75 305.5,-759.75 305.5,-723.75 398.5,-723.75 398.5,-759.75"/>
<text text-anchor="middle" x="352" y="-737.08" font-family="Times,serif" font-size="14.00">gen_init_cpio</text>
</g>
<!-- cluster__level1_gen_init_cpio -->
<g id="node34" class="node">
<title>cluster__level1_gen_init_cpio</title>
<polygon fill="#dae8fc" stroke="#6c8ebf" points="537.5,-237.25 444.5,-237.25 444.5,-201.25 537.5,-201.25 537.5,-237.25"/>
<text text-anchor="middle" x="491" y="-214.57" font-family="Times,serif" font-size="14.00">gen_init_cpio</text>
</g>
<!-- cluster_basegen_init_cpio&#45;&gt;cluster__level1_gen_init_cpio -->
<g id="edge43" class="edge">
<title>cluster_basegen_init_cpio&#45;&gt;cluster__level1_gen_init_cpio</title>
<path fill="none" stroke="#000000" stroke-opacity="0.066667" d="M356.87,-723.46C378.34,-642.72 464.56,-318.65 486.1,-237.66"/>
</g>
<!-- cluster_basecpio_list -->
<g id="node11" class="node">
<title>cluster_basecpio_list</title>
<polygon fill="none" stroke="black" points="475.25,-759.75 416.75,-759.75 416.75,-723.75 475.25,-723.75 475.25,-759.75"/>
<text text-anchor="middle" x="446" y="-737.08" font-family="Times,serif" font-size="14.00">cpio_list</text>
</g>
<!-- cluster_overlays_connect_node_ -->
<g id="node12" class="node">
<title>cluster_overlays_connect_node_</title>
</g>
<!-- cluster__level1_initramfs_overlays -->
<g id="node39" class="node">
<title>cluster__level1_initramfs_overlays</title>
<polygon fill="#dae8fc" stroke="#6c8ebf" points="688,-237.25 556,-237.25 556,-201.25 688,-201.25 688,-237.25"/>
<text text-anchor="middle" x="622" y="-214.57" font-family="Times,serif" font-size="14.00">initramfs_overlays</text>
</g>
<!-- cluster_overlays_connect_node_&#45;&gt;cluster__level1_initramfs_overlays -->
<g id="edge48" class="edge">
<title>cluster_overlays_connect_node_&#45;&gt;cluster__level1_initramfs_overlays</title>
<path fill="none" stroke="#000000" stroke-width="2" stroke-opacity="0.066667" d="M505.12,-715.75C526.74,-623.92 599.2,-316.09 617.68,-237.59"/>
</g>
<!-- cluster_overlaysbefore_workload -->
<g id="node13" class="node">
<title>cluster_overlaysbefore_workload</title>
<polygon fill="none" stroke="black" points="634.88,-759.75 517.12,-759.75 517.12,-723.75 634.88,-723.75 634.88,-759.75"/>
<text text-anchor="middle" x="576" y="-737.08" font-family="Times,serif" font-size="14.00">before_workload</text>
</g>
<!-- cluster__level1_before_workload -->
<g id="node36" class="node">
<title>cluster__level1_before_workload</title>
<polygon fill="#dae8fc" stroke="#6c8ebf" points="823.88,-237.25 706.12,-237.25 706.12,-201.25 823.88,-201.25 823.88,-237.25"/>
<text text-anchor="middle" x="765" y="-214.57" font-family="Times,serif" font-size="14.00">before_workload</text>
</g>
<!-- cluster_overlaysbefore_workload&#45;&gt;cluster__level1_before_workload -->
<g id="edge45" class="edge">
<title>cluster_overlaysbefore_workload&#45;&gt;cluster__level1_before_workload</title>
<path fill="none" stroke="#000000" stroke-opacity="0.066667" d="M582.62,-723.46C611.82,-642.72 729.05,-318.65 758.34,-237.66"/>
</g>
<!-- cluster_overlaysqemu_trap -->
<g id="node14" class="node">
<title>cluster_overlaysqemu_trap</title>
<polygon fill="none" stroke="black" points="729.25,-759.75 652.75,-759.75 652.75,-723.75 729.25,-723.75 729.25,-759.75"/>
<text text-anchor="middle" x="691" y="-737.08" font-family="Times,serif" font-size="14.00">qemu_trap</text>
</g>
<!-- cluster__level1_qemu_trap -->
<g id="node38" class="node">
<title>cluster__level1_qemu_trap</title>
<polygon fill="#dae8fc" stroke="#6c8ebf" points="918.25,-237.25 841.75,-237.25 841.75,-201.25 918.25,-201.25 918.25,-237.25"/>
<text text-anchor="middle" x="880" y="-214.57" font-family="Times,serif" font-size="14.00">qemu_trap</text>
</g>
<!-- cluster_overlaysqemu_trap&#45;&gt;cluster__level1_qemu_trap -->
<g id="edge47" class="edge">
<title>cluster_overlaysqemu_trap&#45;&gt;cluster__level1_qemu_trap</title>
<path fill="none" stroke="#000000" stroke-opacity="0.066667" d="M697.62,-723.46C726.82,-642.72 844.05,-318.65 873.34,-237.66"/>
</g>
<!-- cluster_overlaysnemu_trap -->
<g id="node15" class="node">
<title>cluster_overlaysnemu_trap</title>
<polygon fill="none" stroke="black" points="824.25,-759.75 747.75,-759.75 747.75,-723.75 824.25,-723.75 824.25,-759.75"/>
<text text-anchor="middle" x="786" y="-737.08" font-family="Times,serif" font-size="14.00">nemu_trap</text>
</g>
<!-- cluster__level1_nemu_trap -->
<g id="node37" class="node">
<title>cluster__level1_nemu_trap</title>
<polygon fill="#dae8fc" stroke="#6c8ebf" points="1013.25,-237.25 936.75,-237.25 936.75,-201.25 1013.25,-201.25 1013.25,-237.25"/>
<text text-anchor="middle" x="975" y="-214.57" font-family="Times,serif" font-size="14.00">nemu_trap</text>
</g>
<!-- cluster_overlaysnemu_trap&#45;&gt;cluster__level1_nemu_trap -->
<g id="edge46" class="edge">
<title>cluster_overlaysnemu_trap&#45;&gt;cluster__level1_nemu_trap</title>
<path fill="none" stroke="#000000" stroke-opacity="0.066667" d="M792.62,-723.46C821.82,-642.72 939.05,-318.65 968.34,-237.66"/>
</g>
<!-- cluster_overlaysinittab -->
<g id="node16" class="node">
<title>cluster_overlaysinittab</title>
<polygon fill="none" stroke="black" points="896,-759.75 842,-759.75 842,-723.75 896,-723.75 896,-759.75"/>
<text text-anchor="middle" x="869" y="-737.08" font-family="Times,serif" font-size="14.00">inittab</text>
</g>
<!-- cluster_overlaysrun_sh -->
<g id="node17" class="node">
<title>cluster_overlaysrun_sh</title>
<polygon fill="none" stroke="black" points="968,-759.75 914,-759.75 914,-723.75 968,-723.75 968,-759.75"/>
<text text-anchor="middle" x="941" y="-737.08" font-family="Times,serif" font-size="14.00">run.sh</text>
</g>
<!-- cluster_linuxcommon&#45;build -->
<g id="node18" class="node">
<title>cluster_linuxcommon&#45;build</title>
<polygon fill="none" stroke="black" points="1092.25,-759.75 991.75,-759.75 991.75,-723.75 1092.25,-723.75 1092.25,-759.75"/>
<text text-anchor="middle" x="1042" y="-737.08" font-family="Times,serif" font-size="14.00">common&#45;build</text>
</g>
<!-- cluster__level2_linux&#45;common&#45;build -->
<g id="node42" class="node">
<title>cluster__level2_linux&#45;common&#45;build</title>
<polygon fill="#dae8fc" stroke="#6c8ebf" points="773.75,-165.25 634.25,-165.25 634.25,-129.25 773.75,-129.25 773.75,-165.25"/>
<text text-anchor="middle" x="704" y="-142.57" font-family="Times,serif" font-size="14.00">linux&#45;common&#45;build</text>
</g>
<!-- cluster_linuxcommon&#45;build&#45;&gt;cluster__level2_linux&#45;common&#45;build -->
<g id="edge50" class="edge">
<title>cluster_linuxcommon&#45;build&#45;&gt;cluster__level2_linux&#45;common&#45;build</title>
<path fill="none" stroke="#000000" stroke-opacity="0.066667" d="M1031.51,-723.31C981.15,-634.72 764.46,-253.59 714.36,-165.48"/>
</g>
<!-- cluster_cptBuilder_connect_node_ -->
<g id="node19" class="node">
<title>cluster_cptBuilder_connect_node_</title>
</g>
<!-- cluster_cptBuilderqemu&#45;&gt;cluster_cptBuilderstage1&#45;profiling -->
<g id="edge2" class="edge">
<title>cluster_cptBuilderqemu&#45;&gt;cluster_cptBuilderstage1&#45;profiling</title>
<path fill="none" stroke="#000000" stroke-opacity="0.266667" d="M1052.69,-598.2C1055.14,-590.74 1058.07,-581.82 1060.81,-573.47"/>
<polygon fill="#000000" fill-opacity="0.266667" stroke="#000000" stroke-opacity="0.266667" points="1064.11,-574.64 1063.91,-564.04 1057.46,-572.45 1064.11,-574.64"/>
</g>
<!-- cluster_cptBuilderqemu&#45;&gt;cluster_cptBuilderstage3&#45;checkpoint -->
<g id="edge6" class="edge">
<title>cluster_cptBuilderqemu&#45;&gt;cluster_cptBuilderstage3&#45;checkpoint</title>
<path fill="none" stroke="#000000" stroke-opacity="0.266667" d="M1042.31,-598.08C1032.77,-560.62 1011.04,-475.27 999.51,-429.99"/>
<polygon fill="#000000" fill-opacity="0.266667" stroke="#000000" stroke-opacity="0.266667" points="1002.91,-429.16 997.05,-420.34 996.13,-430.89 1002.91,-429.16"/>
</g>
<!-- cluster__level3_qemu -->
<g id="node51" class="node">
<title>cluster__level3_qemu</title>
<polygon fill="#f8cecc" stroke="#b85450" points="960,-93.25 906,-93.25 906,-57.25 960,-57.25 960,-93.25"/>
<text text-anchor="middle" x="933" y="-70.58" font-family="Times,serif" font-size="14.00">qemu</text>
</g>
<!-- cluster_cptBuilderqemu&#45;&gt;cluster__level3_qemu -->
<g id="edge58" class="edge">
<title>cluster_cptBuilderqemu&#45;&gt;cluster__level3_qemu</title>
<path fill="none" stroke="#000000" stroke-opacity="0.066667" d="M1043.14,-598.18C1025.7,-515.36 954.3,-176.37 936.86,-93.56"/>
</g>
<!-- cluster_cptBuildernemu -->
<g id="node21" class="node">
<title>cluster_cptBuildernemu</title>
<polygon fill="none" stroke="black" points="1146,-634.5 1092,-634.5 1092,-598.5 1146,-598.5 1146,-634.5"/>
<text text-anchor="middle" x="1119" y="-611.83" font-family="Times,serif" font-size="14.00">nemu</text>
</g>
<!-- cluster_cptBuildernemu&#45;&gt;cluster_cptBuilderstage1&#45;profiling -->
<g id="edge3" class="edge">
<title>cluster_cptBuildernemu&#45;&gt;cluster_cptBuilderstage1&#45;profiling</title>
<path fill="none" stroke="#000000" stroke-opacity="0.266667" d="M1106.89,-598.2C1101.31,-590.23 1094.57,-580.6 1088.38,-571.76"/>
<polygon fill="#000000" fill-opacity="0.266667" stroke="#000000" stroke-opacity="0.266667" points="1091.44,-570.03 1082.84,-563.84 1085.71,-574.04 1091.44,-570.03"/>
</g>
<!-- cluster_cptBuildernemu&#45;&gt;cluster_cptBuilderstage3&#45;checkpoint -->
<g id="edge7" class="edge">
<title>cluster_cptBuildernemu&#45;&gt;cluster_cptBuilderstage3&#45;checkpoint</title>
<path fill="none" stroke="#000000" stroke-opacity="0.266667" d="M1108.17,-598.08C1085.91,-560.22 1034.89,-473.45 1008.5,-428.56"/>
<polygon fill="#000000" fill-opacity="0.266667" stroke="#000000" stroke-opacity="0.266667" points="1011.65,-427.02 1003.57,-420.17 1005.62,-430.57 1011.65,-427.02"/>
</g>
<!-- cluster__level3_nemu -->
<g id="node50" class="node">
<title>cluster__level3_nemu</title>
<polygon fill="#f8cecc" stroke="#b85450" points="1032,-93.25 978,-93.25 978,-57.25 1032,-57.25 1032,-93.25"/>
<text text-anchor="middle" x="1005" y="-70.58" font-family="Times,serif" font-size="14.00">nemu</text>
</g>
<!-- cluster_cptBuildernemu&#45;&gt;cluster__level3_nemu -->
<g id="edge57" class="edge">
<title>cluster_cptBuildernemu&#45;&gt;cluster__level3_nemu</title>
<path fill="none" stroke="#000000" stroke-opacity="0.066667" d="M1115.14,-598.18C1097.7,-515.36 1026.3,-176.37 1008.86,-93.56"/>
</g>
<!-- cluster_cptBuilderstage2&#45;cluster -->
<g id="node24" class="node">
<title>cluster_cptBuilderstage2&#45;cluster</title>
<polygon fill="none" stroke="black" points="1081,-490.5 979,-490.5 979,-454.5 1081,-454.5 1081,-490.5"/>
<text text-anchor="middle" x="1030" y="-467.82" font-family="Times,serif" font-size="14.00">stage2&#45;cluster</text>
</g>
<!-- cluster_cptBuilderstage1&#45;profiling&#45;&gt;cluster_cptBuilderstage2&#45;cluster -->
<g id="edge5" class="edge">
<title>cluster_cptBuilderstage1&#45;profiling&#45;&gt;cluster_cptBuilderstage2&#45;cluster</title>
<path fill="none" stroke="#000000" stroke-opacity="0.266667" d="M1060.11,-526.2C1055.66,-518.4 1050.29,-509.01 1045.33,-500.33"/>
<polygon fill="#000000" fill-opacity="0.266667" stroke="#000000" stroke-opacity="0.266667" points="1048.53,-498.86 1040.52,-491.92 1042.45,-502.34 1048.53,-498.86"/>
</g>
<!-- cluster__level3_stage1&#45;profiling -->
<g id="node53" class="node">
<title>cluster__level3_stage1&#45;profiling</title>
<polygon fill="#f8cecc" stroke="#b85450" points="888.25,-93.25 775.75,-93.25 775.75,-57.25 888.25,-57.25 888.25,-93.25"/>
<text text-anchor="middle" x="832" y="-70.58" font-family="Times,serif" font-size="14.00">stage1&#45;profiling</text>
</g>
<!-- cluster_cptBuilderstage1&#45;profiling&#45;&gt;cluster__level3_stage1&#45;profiling -->
<g id="edge60" class="edge">
<title>cluster_cptBuilderstage1&#45;profiling&#45;&gt;cluster__level3_stage1&#45;profiling</title>
<path fill="none" stroke="#000000" stroke-opacity="0.066667" d="M1060.67,-526.1C1022.6,-451.04 879.22,-168.35 841.27,-93.52"/>
</g>
<!-- cluster_cptBuildersimpoint -->
<g id="node23" class="node">
<title>cluster_cptBuildersimpoint</title>
<polygon fill="none" stroke="black" points="996.12,-562.5 933.88,-562.5 933.88,-526.5 996.12,-526.5 996.12,-562.5"/>
<text text-anchor="middle" x="965" y="-539.83" font-family="Times,serif" font-size="14.00">simpoint</text>
</g>
<!-- cluster_cptBuildersimpoint&#45;&gt;cluster_cptBuilderstage2&#45;cluster -->
<g id="edge4" class="edge">
<title>cluster_cptBuildersimpoint&#45;&gt;cluster_cptBuilderstage2&#45;cluster</title>
<path fill="none" stroke="#000000" stroke-opacity="0.266667" d="M981.07,-526.2C988.7,-517.97 997.98,-507.98 1006.4,-498.92"/>
<polygon fill="#000000" fill-opacity="0.266667" stroke="#000000" stroke-opacity="0.266667" points="1008.85,-501.42 1013.09,-491.71 1003.72,-496.66 1008.85,-501.42"/>
</g>
<!-- cluster__level3_simpoint -->
<g id="node52" class="node">
<title>cluster__level3_simpoint</title>
<polygon fill="#f8cecc" stroke="#b85450" points="418.12,-93.25 355.88,-93.25 355.88,-57.25 418.12,-57.25 418.12,-93.25"/>
<text text-anchor="middle" x="387" y="-70.58" font-family="Times,serif" font-size="14.00">simpoint</text>
</g>
<!-- cluster_cptBuildersimpoint&#45;&gt;cluster__level3_simpoint -->
<g id="edge59" class="edge">
<title>cluster_cptBuildersimpoint&#45;&gt;cluster__level3_simpoint</title>
<path fill="none" stroke="#000000" stroke-opacity="0.066667" d="M942.34,-526.1C849.88,-451.04 501.67,-168.35 409.5,-93.52"/>
</g>
<!-- cluster_cptBuilderstage2&#45;cluster&#45;&gt;cluster_cptBuilderstage3&#45;checkpoint -->
<g id="edge8" class="edge">
<title>cluster_cptBuilderstage2&#45;cluster&#45;&gt;cluster_cptBuilderstage3&#45;checkpoint</title>
<path fill="none" stroke="#000000" stroke-opacity="0.266667" d="M1020.61,-454.2C1016.42,-446.48 1011.39,-437.21 1006.72,-428.61"/>
<polygon fill="#000000" fill-opacity="0.266667" stroke="#000000" stroke-opacity="0.266667" points="1009.85,-427.05 1002.01,-419.93 1003.7,-430.39 1009.85,-427.05"/>
</g>
<!-- cluster__level3_stage2&#45;cluster -->
<g id="node54" class="node">
<title>cluster__level3_stage2&#45;cluster</title>
<polygon fill="#f8cecc" stroke="#b85450" points="758,-93.25 656,-93.25 656,-57.25 758,-57.25 758,-93.25"/>
<text text-anchor="middle" x="707" y="-70.58" font-family="Times,serif" font-size="14.00">stage2&#45;cluster</text>
</g>
<!-- cluster_cptBuilderstage2&#45;cluster&#45;&gt;cluster__level3_stage2&#45;cluster -->
<g id="edge61" class="edge">
<title>cluster_cptBuilderstage2&#45;cluster&#45;&gt;cluster__level3_stage2&#45;cluster</title>
<path fill="none" stroke="#000000" stroke-opacity="0.066667" d="M1015.07,-454.14C960.97,-387.61 775.61,-159.63 721.77,-93.42"/>
</g>
<!-- cluster_output_connect_node_ -->
<g id="node30" class="node">
<title>cluster_output_connect_node_</title>
</g>
<!-- cluster_cptBuilderstage3&#45;checkpoint&#45;&gt;cluster_output_connect_node_ -->
<g id="edge41" class="edge">
<title>cluster_cptBuilderstage3&#45;checkpoint&#45;&gt;cluster_output_connect_node_</title>
<path fill="none" stroke="#000000" stroke-opacity="0.266667" d="M979.63,-382.27C974.97,-375.78 969.35,-367.95 963.39,-359.65"/>
<polygon fill="#000000" fill-opacity="0.266667" stroke="#000000" stroke-opacity="0.266667" points="966.38,-357.81 957.7,-351.73 960.69,-361.89 966.38,-357.81"/>
</g>
<!-- cluster__level0_benchmark -->
<g id="node32" class="node">
<title>cluster__level0_benchmark</title>
<polygon fill="#d5e8d4" stroke="#82b366" points="1031.75,-309.25 952.25,-309.25 952.25,-273.25 1031.75,-273.25 1031.75,-309.25"/>
<text text-anchor="middle" x="992" y="-286.57" font-family="Times,serif" font-size="14.00">benchmark</text>
</g>
<!-- cluster_cptBuilderstage3&#45;checkpoint&#45;&gt;cluster__level0_benchmark -->
<g id="edge65" class="edge">
<title>cluster_cptBuilderstage3&#45;checkpoint&#45;&gt;cluster__level0_benchmark</title>
<path fill="none" stroke="none" d="M971.54,-382.27C964.25,-365.54 963.05,-339.86 967.96,-320.2"/>
<polygon fill="none" stroke="none" points="971.23,-321.47 971.08,-310.87 964.59,-319.25 971.23,-321.47"/>
</g>
<!-- cluster_cptBuilderstage3&#45;checkpoint&#45;&gt;cluster__level0_benchmark -->
<g id="edge66" class="edge">
<title>cluster_cptBuilderstage3&#45;checkpoint&#45;&gt;cluster__level0_benchmark</title>
<path fill="none" stroke="none" d="M981.77,-382.27C978.16,-365.69 977.54,-340.34 979.91,-320.76"/>
<polygon fill="none" stroke="none" points="983.36,-321.37 981.53,-310.93 976.45,-320.23 983.36,-321.37"/>
</g>
<!-- cluster_cptBuilderstage3&#45;checkpoint&#45;&gt;cluster__level0_benchmark -->
<g id="edge67" class="edge">
<title>cluster_cptBuilderstage3&#45;checkpoint&#45;&gt;cluster__level0_benchmark</title>
<path fill="none" stroke="none" d="M992,-382.27C992,-365.69 992,-340.34 992,-320.76"/>
<polygon fill="none" stroke="none" points="995.5,-320.95 992,-310.95 988.5,-320.95 995.5,-320.95"/>
</g>
<!-- cluster_cptBuilderstage3&#45;checkpoint&#45;&gt;cluster__level0_benchmark -->
<g id="edge68" class="edge">
<title>cluster_cptBuilderstage3&#45;checkpoint&#45;&gt;cluster__level0_benchmark</title>
<path fill="none" stroke="none" d="M1002.23,-382.27C1005.84,-365.69 1006.46,-340.34 1004.09,-320.76"/>
<polygon fill="none" stroke="none" points="1007.55,-320.23 1002.47,-310.93 1000.64,-321.37 1007.55,-320.23"/>
</g>
<!-- cluster_cptBuilderstage3&#45;checkpoint&#45;&gt;cluster__level0_benchmark -->
<g id="edge69" class="edge">
<title>cluster_cptBuilderstage3&#45;checkpoint&#45;&gt;cluster__level0_benchmark</title>
<path fill="none" stroke="none" d="M1012.46,-382.27C1019.75,-365.54 1020.95,-339.86 1016.04,-320.2"/>
<polygon fill="none" stroke="none" points="1019.41,-319.25 1012.92,-310.87 1012.77,-321.47 1019.41,-319.25"/>
</g>
<!-- cluster__level3_stage3&#45;checkpoint -->
<g id="node55" class="node">
<title>cluster__level3_stage3&#45;checkpoint</title>
<polygon fill="#f8cecc" stroke="#b85450" points="565.88,-93.25 436.12,-93.25 436.12,-57.25 565.88,-57.25 565.88,-93.25"/>
<text text-anchor="middle" x="501" y="-70.58" font-family="Times,serif" font-size="14.00">stage3&#45;checkpoint</text>
</g>
<!-- cluster_cptBuilderstage3&#45;checkpoint&#45;&gt;cluster__level3_stage3&#45;checkpoint -->
<g id="edge62" class="edge">
<title>cluster_cptBuilderstage3&#45;checkpoint&#45;&gt;cluster__level3_stage3&#45;checkpoint</title>
<path fill="none" stroke="#000000" stroke-opacity="0.066667" d="M964.19,-382.08C877.87,-324.9 615.12,-150.85 528.8,-93.67"/>
</g>
<!-- cluster__level3_cpt -->
<g id="node56" class="node">
<title>cluster__level3_cpt</title>
<polygon fill="#f8cecc" stroke="#b85450" points="638,-93.25 584,-93.25 584,-57.25 638,-57.25 638,-93.25"/>
<text text-anchor="middle" x="611" y="-70.58" font-family="Times,serif" font-size="14.00">cpt</text>
</g>
<!-- cluster_cptBuilderstage3&#45;checkpoint&#45;&gt;cluster__level3_cpt -->
<g id="edge63" class="edge">
<title>cluster_cptBuilderstage3&#45;checkpoint&#45;&gt;cluster__level3_cpt</title>
<path fill="none" stroke="#000000" stroke-opacity="0.066667" d="M970.42,-382.08C903.36,-324.83 699.08,-150.44 632.34,-93.47"/>
</g>
<!-- cluster_inputs_connect_node_ -->
<g id="node26" class="node">
<title>cluster_inputs_connect_node_</title>
</g>
<!-- cluster_benchmark_connect_node_ -->
<g id="node27" class="node">
<title>cluster_benchmark_connect_node_</title>
</g>
<!-- cluster_benchmark_connect_node_&#45;&gt;cluster_initramfs_connect_node_ -->
<g id="edge40" class="edge">
<title>cluster_benchmark_connect_node_&#45;&gt;cluster_initramfs_connect_node_</title>
<path fill="none" stroke="#82b366" stroke-width="2" d="M884,-1028.86C835.64,-1006.39 621.68,-907.02 459.38,-831.64"/>
<polygon fill="#82b366" stroke="#82b366" stroke-width="2" points="461.07,-828.56 450.52,-827.52 458.12,-834.91 461.07,-828.56"/>
</g>
<!-- cluster_benchmark_connect_node_&#45;&gt;cluster__level0_benchmark -->
<g id="edge42" class="edge">
<title>cluster_benchmark_connect_node_&#45;&gt;cluster__level0_benchmark</title>
<path fill="none" stroke="#82b366" stroke-width="2" stroke-opacity="0.066667" d="M897.43,-1008.5C912.95,-890.8 976.44,-409.29 989.6,-309.43"/>
</g>
<!-- cluster_benchmarkrun -->
<g id="node28" class="node">
<title>cluster_benchmarkrun</title>
<polygon fill="none" stroke="black" points="968,-1052.5 914,-1052.5 914,-1016.5 968,-1016.5 968,-1052.5"/>
<text text-anchor="middle" x="941" y="-1029.83" font-family="Times,serif" font-size="14.00">run</text>
</g>
<!-- cluster_benchmarkrun&#45;&gt;cluster_overlaysrun_sh -->
<g id="edge39" class="edge">
<title>cluster_benchmarkrun&#45;&gt;cluster_overlaysrun_sh</title>
<path fill="none" stroke="#000000" stroke-opacity="0.266667" d="M941,-1016.18C941,-967.8 941,-830.86 941,-771.16"/>
<polygon fill="#000000" fill-opacity="0.266667" stroke="#000000" stroke-opacity="0.266667" points="944.5,-771.49 941,-761.49 937.5,-771.49 944.5,-771.49"/>
</g>
<!-- cluster_outputs_connect_node_ -->
<g id="node29" class="node">
<title>cluster_outputs_connect_node_</title>
</g>
<!-- cluster__level0__connect_node_ -->
<g id="node31" class="node">
<title>cluster__level0__connect_node_</title>
</g>
<!-- cluster__level1__connect_node_ -->
<g id="node33" class="node">
<title>cluster__level1__connect_node_</title>
</g>
<!-- cluster__level0__connect_node_&#45;&gt;cluster__level1__connect_node_ -->
<g id="edge11" class="edge">
<title>cluster__level0__connect_node_&#45;&gt;cluster__level1__connect_node_</title>
<path fill="none" stroke="none" stroke-width="2" d="M969,-265.25C974.67,-261.2 980.62,-256.95 986.51,-252.75"/>
<polygon fill="none" stroke="none" stroke-width="2" points="988.44,-255.67 994.54,-247 984.37,-249.97 988.44,-255.67"/>
</g>
<!-- cluster__level2__connect_node_ -->
<g id="node41" class="node">
<title>cluster__level2__connect_node_</title>
</g>
<!-- cluster__level1__connect_node_&#45;&gt;cluster__level2__connect_node_ -->
<g id="edge12" class="edge">
<title>cluster__level1__connect_node_&#45;&gt;cluster__level2__connect_node_</title>
<path fill="none" stroke="none" stroke-width="2" d="M997.72,-193.25C979.61,-180.05 958.66,-164.77 946.42,-155.84"/>
<polygon fill="none" stroke="none" stroke-width="2" points="955.51,-160.34 946.08,-155.5 950.43,-165.16 955.51,-160.34"/>
</g>
<!-- cluster__level3__connect_node_ -->
<g id="node49" class="node">
<title>cluster__level3__connect_node_</title>
</g>
<!-- cluster__level2__connect_node_&#45;&gt;cluster__level3__connect_node_ -->
<g id="edge14" class="edge">
<title>cluster__level2__connect_node_&#45;&gt;cluster__level3__connect_node_</title>
<path fill="none" stroke="none" stroke-width="2" d="M722.44,-121.25C671.13,-115.24 616.15,-108.81 564.28,-102.74"/>
<polygon fill="none" stroke="none" stroke-width="2" points="564.89,-99.29 554.56,-101.6 564.08,-106.24 564.89,-99.29"/>
</g>
<!-- cluster_outputsoverrideScope -->
<g id="node57" class="node">
<title>cluster_outputsoverrideScope</title>
<ellipse fill="none" stroke="black" stroke-width="2" cx="115" cy="-75.25" rx="99.11" ry="18"/>
<text text-anchor="middle" x="115" y="-68.25" font-family="Times,serif" font-size="20.00">overrideScope</text>
</g>
<!-- cluster__level2_dts&#45;&gt;cluster_outputsoverrideScope -->
<g id="edge16" class="edge">
<title>cluster__level2_dts&#45;&gt;cluster_outputsoverrideScope</title>
<path fill="none" stroke="none" d="M311.53,-137.67C277.82,-127.13 219.69,-108.97 175.37,-95.11"/>
<polygon fill="none" stroke="none" points="176.45,-91.79 165.86,-92.14 174.36,-98.47 176.45,-91.79"/>
</g>
<!-- cluster__level3_stage3&#45;checkpoint&#45;&gt;cluster__level3_cpt -->
<g id="edge13" class="edge">
<title>cluster__level3_stage3&#45;checkpoint&#45;&gt;cluster__level3_cpt</title>
<path fill="none" stroke="#b85450" d="M566.31,-73.25C572.13,-73.25 577.95,-73.25 583.77,-73.25"/>
<path fill="none" stroke="none" d="M566.31,-75.25C572.13,-75.25 577.95,-75.25 583.77,-75.25"/>
<path fill="none" stroke="#b85450" d="M566.31,-77.25C572.13,-77.25 577.95,-77.25 583.77,-77.25"/>
</g>
<!-- cluster_outputsoverrideScope&#45;&gt;cluster_output_connect_node_ -->
<g id="edge15" class="edge">
<title>cluster_outputsoverrideScope&#45;&gt;cluster_output_connect_node_</title>
<path fill="none" stroke="black" stroke-width="2" d="M172.33,-90.73C183.46,-93.73 195.97,-97.11 209.67,-100.81"/>
<polygon fill="black" stroke="black" stroke-width="2" points="208.51,-104.12 219.08,-103.35 210.34,-97.37 208.51,-104.12"/>
</g>
<!-- cluster_outputsoverride -->
<g id="node58" class="node">
<title>cluster_outputsoverride</title>
<ellipse fill="none" stroke="black" cx="1120" cy="-291.25" rx="34.18" ry="18"/>
<text text-anchor="middle" x="1120" y="-286.57" font-family="Times,serif" font-size="14.00">override</text>
</g>
<!-- cluster_outputsoverride&#45;&gt;cluster__level0_benchmark -->
<g id="edge18" class="edge">
<title>cluster_outputsoverride&#45;&gt;cluster__level0_benchmark</title>
<path fill="none" stroke="#000000" stroke-opacity="0.133333" d="M1085.62,-291.25C1071.52,-291.25 1057.42,-291.25 1043.31,-291.25"/>
<polygon fill="#000000" fill-opacity="0.133333" stroke="#000000" stroke-opacity="0.133333" points="1043.51,-287.75 1033.51,-291.25 1043.51,-294.75 1043.51,-287.75"/>
</g>
<!-- cluster_outputsoverride&#45;&gt;cluster__level1_gen_init_cpio -->
<g id="edge22" class="edge">
<title>cluster_outputsoverride&#45;&gt;cluster__level1_gen_init_cpio</title>
<path fill="none" stroke="#000000" stroke-opacity="0.133333" d="M1086.63,-286.54C984.93,-275.22 678,-241.06 549.05,-226.71"/>
<polygon fill="#000000" fill-opacity="0.133333" stroke="#000000" stroke-opacity="0.133333" points="549.7,-223.26 539.38,-225.63 548.93,-230.22 549.7,-223.26"/>
</g>
<!-- cluster_outputsoverride&#45;&gt;cluster__level1_initramfs_base -->
<g id="edge25" class="edge">
<title>cluster_outputsoverride&#45;&gt;cluster__level1_initramfs_base</title>
<path fill="none" stroke="#000000" stroke-opacity="0.133333" d="M1086.5,-287.11C971.41,-276.31 590.96,-240.61 438.26,-226.28"/>
<polygon fill="#000000" fill-opacity="0.133333" stroke="#000000" stroke-opacity="0.133333" points="438.58,-222.79 428.3,-225.35 437.93,-229.76 438.58,-222.79"/>
</g>
<!-- cluster_outputsoverride&#45;&gt;cluster__level1_before_workload -->
<g id="edge17" class="edge">
<title>cluster_outputsoverride&#45;&gt;cluster__level1_before_workload</title>
<path fill="none" stroke="#000000" stroke-opacity="0.133333" d="M1088.18,-283.98C1031.57,-272.81 912.11,-249.26 835.35,-234.12"/>
<polygon fill="#000000" fill-opacity="0.133333" stroke="#000000" stroke-opacity="0.133333" points="836.32,-230.75 825.84,-232.25 834.97,-237.61 836.32,-230.75"/>
</g>
<!-- cluster_outputsoverride&#45;&gt;cluster__level1_nemu_trap -->
<g id="edge30" class="edge">
<title>cluster_outputsoverride&#45;&gt;cluster__level1_nemu_trap</title>
<path fill="none" stroke="#000000" stroke-opacity="0.133333" d="M1095.4,-278.38C1075.18,-268.61 1045.96,-254.51 1021.38,-242.64"/>
<polygon fill="#000000" fill-opacity="0.133333" stroke="#000000" stroke-opacity="0.133333" points="1023.05,-239.56 1012.52,-238.36 1020.01,-245.86 1023.05,-239.56"/>
</g>
<!-- cluster_outputsoverride&#45;&gt;cluster__level1_qemu_trap -->
<g id="edge34" class="edge">
<title>cluster_outputsoverride&#45;&gt;cluster__level1_qemu_trap</title>
<path fill="none" stroke="#000000" stroke-opacity="0.133333" d="M1090.57,-281.67C1050.39,-269.95 977.83,-248.78 929.28,-234.62"/>
<polygon fill="#000000" fill-opacity="0.133333" stroke="#000000" stroke-opacity="0.133333" points="930.43,-231.31 919.85,-231.87 928.47,-238.03 930.43,-231.31"/>
</g>
<!-- cluster_outputsoverride&#45;&gt;cluster__level1_initramfs_overlays -->
<g id="edge26" class="edge">
<title>cluster_outputsoverride&#45;&gt;cluster__level1_initramfs_overlays</title>
<path fill="none" stroke="#000000" stroke-opacity="0.133333" d="M1087.32,-285.66C1009.29,-274.69 810.34,-246.72 699.52,-231.15"/>
<polygon fill="#000000" fill-opacity="0.133333" stroke="#000000" stroke-opacity="0.133333" points="700.31,-227.72 689.92,-229.8 699.33,-234.65 700.31,-227.72"/>
</g>
<!-- cluster_outputsoverride&#45;&gt;cluster__level1_initramfs -->
<g id="edge24" class="edge">
<title>cluster_outputsoverride&#45;&gt;cluster__level1_initramfs</title>
<path fill="none" stroke="#000000" stroke-opacity="0.133333" d="M1086.19,-287.46C953.17,-276.5 465.75,-236.31 315.44,-223.91"/>
<polygon fill="#000000" fill-opacity="0.133333" stroke="#000000" stroke-opacity="0.133333" points="315.74,-220.43 305.49,-223.09 315.17,-227.4 315.74,-220.43"/>
</g>
<!-- cluster_outputsoverride&#45;&gt;cluster__level2_linux&#45;common&#45;build -->
<g id="edge28" class="edge">
<title>cluster_outputsoverride&#45;&gt;cluster__level2_linux&#45;common&#45;build</title>
<path fill="none" stroke="#000000" stroke-opacity="0.133333" d="M1091.08,-281.24C1024.59,-258.22 859.57,-201.1 767.92,-169.37"/>
<polygon fill="#000000" fill-opacity="0.133333" stroke="#000000" stroke-opacity="0.133333" points="769.14,-166.09 758.54,-166.13 766.85,-172.71 769.14,-166.09"/>
</g>
<!-- cluster_outputsoverride&#45;&gt;cluster__level2_linux -->
<g id="edge27" class="edge">
<title>cluster_outputsoverride&#45;&gt;cluster__level2_linux</title>
<path fill="none" stroke="#000000" stroke-opacity="0.133333" d="M1089.16,-282.89C997.62,-258.06 727.64,-184.85 627.2,-157.61"/>
<polygon fill="#000000" fill-opacity="0.133333" stroke="#000000" stroke-opacity="0.133333" points="628.4,-154.31 617.83,-155.07 626.56,-161.06 628.4,-154.31"/>
</g>
<!-- cluster_outputsoverride&#45;&gt;cluster__level2_dts -->
<g id="edge20" class="edge">
<title>cluster_outputsoverride&#45;&gt;cluster__level2_dts</title>
<path fill="none" stroke="#000000" stroke-opacity="0.133333" d="M1087.44,-285.25C962.19,-262.15 511.8,-179.11 377.23,-154.3"/>
<polygon fill="#000000" fill-opacity="0.133333" stroke="#000000" stroke-opacity="0.133333" points="378.24,-150.93 367.77,-152.56 376.97,-157.81 378.24,-150.93"/>
</g>
<!-- cluster_outputsoverride&#45;&gt;cluster__level2_opensbi&#45;common&#45;build -->
<g id="edge32" class="edge">
<title>cluster_outputsoverride&#45;&gt;cluster__level2_opensbi&#45;common&#45;build</title>
<path fill="none" stroke="#000000" stroke-opacity="0.133333" d="M1088.36,-284.3C992.79,-263.33 704.53,-200.05 555.47,-167.33"/>
<polygon fill="#000000" fill-opacity="0.133333" stroke="#000000" stroke-opacity="0.133333" points="556.55,-163.98 546.03,-165.26 555.04,-170.82 556.55,-163.98"/>
</g>
<!-- cluster_outputsoverride&#45;&gt;cluster__level2_opensbi -->
<g id="edge31" class="edge">
<title>cluster_outputsoverride&#45;&gt;cluster__level2_opensbi</title>
<path fill="none" stroke="#000000" stroke-opacity="0.133333" d="M1087.05,-285.69C953.04,-263.1 449.31,-178.16 304.91,-153.81"/>
<polygon fill="#000000" fill-opacity="0.133333" stroke="#000000" stroke-opacity="0.133333" points="305.92,-150.43 295.47,-152.22 304.75,-157.33 305.92,-150.43"/>
</g>
<!-- cluster_outputsoverride&#45;&gt;cluster__level2_gcpt -->
<g id="edge21" class="edge">
<title>cluster_outputsoverride&#45;&gt;cluster__level2_gcpt</title>
<path fill="none" stroke="#000000" stroke-opacity="0.133333" d="M1094.34,-278.97C1041.12,-253.51 918.53,-194.87 856.47,-165.17"/>
<polygon fill="#000000" fill-opacity="0.133333" stroke="#000000" stroke-opacity="0.133333" points="858.22,-162.13 847.69,-160.98 855.2,-168.45 858.22,-162.13"/>
</g>
<!-- cluster_outputsoverride&#45;&gt;cluster__level2_img -->
<g id="edge23" class="edge">
<title>cluster_outputsoverride&#45;&gt;cluster__level2_img</title>
<path fill="none" stroke="#000000" stroke-opacity="0.133333" d="M1097.63,-277.18C1058.22,-252.4 976.1,-200.76 928.1,-170.58"/>
<polygon fill="#000000" fill-opacity="0.133333" stroke="#000000" stroke-opacity="0.133333" points="930.01,-167.65 919.68,-165.29 926.28,-173.57 930.01,-167.65"/>
</g>
<!-- cluster_outputsoverride&#45;&gt;cluster__level3_nemu -->
<g id="edge29" class="edge">
<title>cluster_outputsoverride&#45;&gt;cluster__level3_nemu</title>
<path fill="none" stroke="#000000" stroke-opacity="0.133333" d="M1110.59,-273.57C1090.67,-236.17 1044.13,-148.74 1020.04,-103.5"/>
<polygon fill="#000000" fill-opacity="0.133333" stroke="#000000" stroke-opacity="0.133333" points="1023.2,-101.99 1015.41,-94.81 1017.02,-105.28 1023.2,-101.99"/>
</g>
<!-- cluster_outputsoverride&#45;&gt;cluster__level3_qemu -->
<g id="edge33" class="edge">
<title>cluster_outputsoverride&#45;&gt;cluster__level3_qemu</title>
<path fill="none" stroke="#000000" stroke-opacity="0.133333" d="M1105.64,-274.66C1073.49,-237.52 995.48,-147.41 956.28,-102.14"/>
<polygon fill="#000000" fill-opacity="0.133333" stroke="#000000" stroke-opacity="0.133333" points="959.17,-100.13 949.98,-94.86 953.88,-104.71 959.17,-100.13"/>
</g>
<!-- cluster_outputsoverride&#45;&gt;cluster__level3_simpoint -->
<g id="edge35" class="edge">
<title>cluster_outputsoverride&#45;&gt;cluster__level3_simpoint</title>
<path fill="none" stroke="#000000" stroke-opacity="0.133333" d="M1089.9,-282.38C974.98,-248.52 563.65,-127.31 429.58,-87.8"/>
<polygon fill="#000000" fill-opacity="0.133333" stroke="#000000" stroke-opacity="0.133333" points="430.61,-84.45 420.03,-84.98 428.63,-91.17 430.61,-84.45"/>
</g>
<!-- cluster_outputsoverride&#45;&gt;cluster__level3_stage1&#45;profiling -->
<g id="edge36" class="edge">
<title>cluster_outputsoverride&#45;&gt;cluster__level3_stage1&#45;profiling</title>
<path fill="none" stroke="#000000" stroke-opacity="0.133333" d="M1100.2,-276.4C1051.59,-239.94 925.9,-145.68 865.45,-100.34"/>
<polygon fill="#000000" fill-opacity="0.133333" stroke="#000000" stroke-opacity="0.133333" points="867.64,-97.6 857.54,-94.4 863.44,-103.2 867.64,-97.6"/>
</g>
<!-- cluster_outputsoverride&#45;&gt;cluster__level3_stage2&#45;cluster -->
<g id="edge37" class="edge">
<title>cluster_outputsoverride&#45;&gt;cluster__level3_stage2&#45;cluster</title>
<path fill="none" stroke="#000000" stroke-opacity="0.133333" d="M1095.4,-278.39C1027.99,-243.13 839.5,-144.55 752.31,-98.95"/>
<polygon fill="#000000" fill-opacity="0.133333" stroke="#000000" stroke-opacity="0.133333" points="754.01,-95.89 743.53,-94.36 750.77,-102.09 754.01,-95.89"/>
</g>
<!-- cluster_outputsoverride&#45;&gt;cluster__level3_stage3&#45;checkpoint -->
<g id="edge38" class="edge">
<title>cluster_outputsoverride&#45;&gt;cluster__level3_stage3&#45;checkpoint</title>
<path fill="none" stroke="#000000" stroke-opacity="0.133333" d="M1091.39,-281.27C997.37,-248.46 696.49,-143.46 564.3,-97.34"/>
<polygon fill="#000000" fill-opacity="0.133333" stroke="#000000" stroke-opacity="0.133333" points="565.58,-94.08 554.99,-94.09 563.28,-100.69 565.58,-94.08"/>
</g>
<!-- cluster_outputsoverride&#45;&gt;cluster__level3_cpt -->
<g id="edge19" class="edge">
<title>cluster_outputsoverride&#45;&gt;cluster__level3_cpt</title>
<path fill="none" stroke="#000000" stroke-opacity="0.133333" d="M1092.99,-279.79C1008.11,-243.77 746.53,-132.76 648.56,-91.19"/>
<polygon fill="#000000" fill-opacity="0.133333" stroke="#000000" stroke-opacity="0.133333" points="650.22,-88.09 639.64,-87.41 647.48,-94.53 650.22,-88.09"/>
</g>
</g>
</svg>
