<?xml version="1.0" encoding="UTF-8" standalone="no"?>
<!DOCTYPE svg PUBLIC "-//W3C//DTD SVG 1.1//EN"
 "http://www.w3.org/Graphics/SVG/1.1/DTD/svg11.dtd">
<!-- Generated by graphviz version 10.0.1 (0)
 -->
<!-- Title: G Pages: 1 -->
<svg width="1185px" height="841px"
 viewBox="0.00 0.00 1185.00 840.50" xmlns="http://www.w3.org/2000/svg" xmlns:xlink="http://www.w3.org/1999/xlink">
<g id="graph0" class="graph" transform="scale(1 1) rotate(0) translate(4 836.5)">
<title>G</title>
<text text-anchor="middle" x="588.5" y="-7.95" font-family="Times,serif" font-size="14.00">Deterload Dependency Graph</text>
<g id="clust1" class="cluster">
<title>cluster_builder</title>
<polygon fill="#f5f5f5" stroke="#666666" stroke-width="2" points="8,-97.25 8,-723.25 1169,-723.25 1169,-97.25 8,-97.25"/>
<text text-anchor="middle" x="588.5" y="-705.95" font-family="Times,serif" font-size="14.00">builder</text>
</g>
<g id="clust2" class="cluster">
<title>cluster_imgBuilder</title>
<polygon fill="#cce5ff" stroke="#666666" stroke-width="2" points="16,-406.5 16,-690 1153,-690 1153,-406.5 16,-406.5"/>
<text text-anchor="middle" x="584.5" y="-672.7" font-family="Times,serif" font-size="14.00">imgBuilder</text>
</g>
<g id="clust3" class="cluster">
<title>cluster_gcpt</title>
<polygon fill="#dae8fc" stroke="#6c8ebf" stroke-width="3" points="32,-414.5 32,-656.75 1145,-656.75 1145,-414.5 32,-414.5"/>
<text text-anchor="middle" x="588.5" y="-639.45" font-family="Times,serif" font-size="14.00">gcpt</text>
</g>
<g id="clust4" class="cluster">
<title>cluster_opensbi</title>
<polygon fill="#dae8fc" stroke="#6c8ebf" stroke-width="2" points="40,-422.5 40,-623.5 1126,-623.5 1126,-422.5 40,-422.5"/>
<text text-anchor="middle" x="583" y="-606.2" font-family="Times,serif" font-size="14.00">opensbi</text>
</g>
<g id="clust5" class="cluster">
<title>cluster_linux</title>
<polygon fill="#dae8fc" stroke="#6c8ebf" stroke-width="2" points="48,-430.5 48,-590.25 917,-590.25 917,-430.5 48,-430.5"/>
<text text-anchor="middle" x="482.5" y="-572.95" font-family="Times,serif" font-size="14.00">linux</text>
</g>
<g id="clust6" class="cluster">
<title>cluster_initramfs</title>
<polygon fill="#dae8fc" stroke="#6c8ebf" stroke-width="2" points="56,-438.5 56,-557 779,-557 779,-438.5 56,-438.5"/>
<text text-anchor="middle" x="417.5" y="-539.7" font-family="Times,serif" font-size="14.00">initramfs</text>
</g>
<g id="clust7" class="cluster">
<title>cluster_base</title>
<polygon fill="#dae8fc" stroke="#6c8ebf" stroke-width="2" points="64,-446.5 64,-523.75 268,-523.75 268,-446.5 64,-446.5"/>
<text text-anchor="middle" x="166" y="-506.45" font-family="Times,serif" font-size="14.00">base</text>
</g>
<g id="clust8" class="cluster">
<title>cluster_overlays</title>
<polygon fill="#dae8fc" stroke="#6c8ebf" stroke-width="2" points="276,-446.5 276,-523.75 761,-523.75 761,-446.5 276,-446.5"/>
<text text-anchor="middle" x="518.5" y="-506.45" font-family="Times,serif" font-size="14.00">overlays</text>
</g>
<g id="clust9" class="cluster">
<title>cluster_cptBuilder</title>
<polygon fill="#f8cecc" stroke="#b85450" stroke-width="2" points="875,-105.25 875,-398.5 1126,-398.5 1126,-105.25 875,-105.25"/>
<text text-anchor="middle" x="1000.5" y="-381.2" font-family="Times,serif" font-size="14.00">cptBuilder</text>
</g>
<g id="clust10" class="cluster">
<title>cluster_inputs</title>
<polygon fill="none" stroke="none" stroke-width="2" points="681,-731.25 681,-824.5 800,-824.5 800,-731.25 681,-731.25"/>
</g>
<g id="clust11" class="cluster">
<title>cluster_benchmark</title>
<polygon fill="#d5e8d4" stroke="#82b366" stroke-width="2" points="689,-739.25 689,-816.5 784,-816.5 784,-739.25 689,-739.25"/>
<text text-anchor="middle" x="736.5" y="-799.2" font-family="Times,serif" font-size="14.00">benchmark</text>
</g>
<g id="clust12" class="cluster">
<title>cluster_outputs</title>
<polygon fill="none" stroke="none" stroke-width="2" points="980,-33.25 980,-85.25 1099,-85.25 1099,-33.25 980,-33.25"/>
</g>
<!-- cluster_builder_connect_node_ -->
<g id="node1" class="node">
<title>cluster_builder_connect_node_</title>
</g>
<!-- cluster_imgBuilder_connect_node_ -->
<g id="node2" class="node">
<title>cluster_imgBuilder_connect_node_</title>
</g>
<!-- cluster_cptBuilderqemu -->
<g id="node20" class="node">
<title>cluster_cptBuilderqemu</title>
<polygon fill="none" stroke="black" points="1027,-365.25 973,-365.25 973,-329.25 1027,-329.25 1027,-365.25"/>
<text text-anchor="middle" x="1000" y="-342.57" font-family="Times,serif" font-size="14.00">qemu</text>
</g>
<!-- cluster_imgBuilder_connect_node_&#45;&gt;cluster_cptBuilderqemu -->
<g id="edge14" class="edge">
<title>cluster_imgBuilder_connect_node_&#45;&gt;cluster_cptBuilderqemu</title>
<path fill="none" stroke="none" stroke-width="2" d="M538.71,-406.5C713.79,-384.39 884.27,-362.86 959.65,-353.35"/>
<polygon fill="none" stroke="none" stroke-width="2" points="960.08,-356.82 969.57,-352.09 959.21,-349.87 960.08,-356.82"/>
</g>
<!-- cluster_gcpt_connect_node_ -->
<g id="node3" class="node">
<title>cluster_gcpt_connect_node_</title>
</g>
<!-- cluster_cptBuilderstage1_profiling -->
<g id="node22" class="node">
<title>cluster_cptBuilderstage1_profiling</title>
<polygon fill="none" stroke="black" points="1017.38,-293.25 902.62,-293.25 902.62,-257.25 1017.38,-257.25 1017.38,-293.25"/>
<text text-anchor="middle" x="960" y="-270.57" font-family="Times,serif" font-size="14.00">stage1_profiling</text>
</g>
<!-- cluster_gcpt_connect_node_&#45;&gt;cluster_cptBuilderstage1_profiling -->
<g id="edge9" class="edge">
<title>cluster_gcpt_connect_node_&#45;&gt;cluster_cptBuilderstage1_profiling</title>
<path fill="none" stroke="#6c8ebf" stroke-width="3" d="M1084.96,-414.5C1052.39,-378.21 1011.85,-333.03 985.94,-304.16"/>
<polygon fill="#6c8ebf" stroke="#6c8ebf" stroke-width="3" points="988.8,-302.1 979.52,-297 983.59,-306.78 988.8,-302.1"/>
</g>
<!-- cluster_cptBuilderstage3_checkpoint -->
<g id="node25" class="node">
<title>cluster_cptBuilderstage3_checkpoint</title>
<polygon fill="none" stroke="black" points="1115,-149.25 983,-149.25 983,-113.25 1115,-113.25 1115,-149.25"/>
<text text-anchor="middle" x="1049" y="-126.58" font-family="Times,serif" font-size="14.00">stage3_checkpoint</text>
</g>
<!-- cluster_gcpt_connect_node_&#45;&gt;cluster_cptBuilderstage3_checkpoint -->
<g id="edge10" class="edge">
<title>cluster_gcpt_connect_node_&#45;&gt;cluster_cptBuilderstage3_checkpoint</title>
<path fill="none" stroke="#6c8ebf" stroke-width="3" d="M1122.04,-414.5C1103.4,-342.2 1072.18,-221.13 1057.33,-163.56"/>
<polygon fill="#6c8ebf" stroke="#6c8ebf" stroke-width="3" points="1060.78,-162.93 1054.9,-154.12 1054.01,-164.68 1060.78,-162.93"/>
</g>
<!-- cluster_opensbi_connect_node_ -->
<g id="node4" class="node">
<title>cluster_opensbi_connect_node_</title>
</g>
<!-- cluster_opensbidts -->
<g id="node5" class="node">
<title>cluster_opensbidts</title>
<polygon fill="none" stroke="black" points="1000,-490.5 946,-490.5 946,-454.5 1000,-454.5 1000,-490.5"/>
<text text-anchor="middle" x="973" y="-467.82" font-family="Times,serif" font-size="14.00">dts</text>
</g>
<!-- cluster_opensbicommon&#45;build -->
<g id="node6" class="node">
<title>cluster_opensbicommon&#45;build</title>
<polygon fill="none" stroke="black" points="1118.25,-490.5 1017.75,-490.5 1017.75,-454.5 1118.25,-454.5 1118.25,-490.5"/>
<text text-anchor="middle" x="1068" y="-467.82" font-family="Times,serif" font-size="14.00">common&#45;build</text>
</g>
<!-- cluster_opensbidts&#45;&gt;cluster_opensbicommon&#45;build -->
<g id="edge1" class="edge">
<title>cluster_opensbidts&#45;&gt;cluster_opensbicommon&#45;build</title>
<path fill="none" stroke="#000000" stroke-opacity="0.266667" d="M1000.46,-472.5C1002.31,-472.5 1004.15,-472.5 1006,-472.5"/>
<polygon fill="#000000" fill-opacity="0.266667" stroke="#000000" stroke-opacity="0.266667" points="1005.83,-476 1015.83,-472.5 1005.83,-469 1005.83,-476"/>
</g>
<!-- cluster_linux_connect_node_ -->
<g id="node7" class="node">
<title>cluster_linux_connect_node_</title>
</g>
<!-- cluster_initramfs_connect_node_ -->
<g id="node8" class="node">
<title>cluster_initramfs_connect_node_</title>
</g>
<!-- cluster_base_connect_node_ -->
<g id="node9" class="node">
<title>cluster_base_connect_node_</title>
</g>
<!-- cluster_basegen_init_cpio -->
<g id="node10" class="node">
<title>cluster_basegen_init_cpio</title>
<polygon fill="none" stroke="black" points="183.5,-490.5 90.5,-490.5 90.5,-454.5 183.5,-454.5 183.5,-490.5"/>
<text text-anchor="middle" x="137" y="-467.82" font-family="Times,serif" font-size="14.00">gen_init_cpio</text>
</g>
<!-- cluster_basecpio_list -->
<g id="node11" class="node">
<title>cluster_basecpio_list</title>
<polygon fill="none" stroke="black" points="260.25,-490.5 201.75,-490.5 201.75,-454.5 260.25,-454.5 260.25,-490.5"/>
<text text-anchor="middle" x="231" y="-467.82" font-family="Times,serif" font-size="14.00">cpio_list</text>
</g>
<!-- cluster_overlays_connect_node_ -->
<g id="node12" class="node">
<title>cluster_overlays_connect_node_</title>
</g>
<!-- cluster_overlaysbefore_workload -->
<g id="node13" class="node">
<title>cluster_overlaysbefore_workload</title>
<polygon fill="none" stroke="black" points="419.88,-490.5 302.12,-490.5 302.12,-454.5 419.88,-454.5 419.88,-490.5"/>
<text text-anchor="middle" x="361" y="-467.82" font-family="Times,serif" font-size="14.00">before_workload</text>
</g>
<!-- cluster_overlaysqemu_trap -->
<g id="node14" class="node">
<title>cluster_overlaysqemu_trap</title>
<polygon fill="none" stroke="black" points="514.25,-490.5 437.75,-490.5 437.75,-454.5 514.25,-454.5 514.25,-490.5"/>
<text text-anchor="middle" x="476" y="-467.82" font-family="Times,serif" font-size="14.00">qemu_trap</text>
</g>
<!-- cluster_overlaysnemu_trap -->
<g id="node15" class="node">
<title>cluster_overlaysnemu_trap</title>
<polygon fill="none" stroke="black" points="609.25,-490.5 532.75,-490.5 532.75,-454.5 609.25,-454.5 609.25,-490.5"/>
<text text-anchor="middle" x="571" y="-467.82" font-family="Times,serif" font-size="14.00">nemu_trap</text>
</g>
<!-- cluster_overlaysinittab -->
<g id="node16" class="node">
<title>cluster_overlaysinittab</title>
<polygon fill="none" stroke="black" points="681,-490.5 627,-490.5 627,-454.5 681,-454.5 681,-490.5"/>
<text text-anchor="middle" x="654" y="-467.82" font-family="Times,serif" font-size="14.00">inittab</text>
</g>
<!-- cluster_overlaysrun_sh -->
<g id="node17" class="node">
<title>cluster_overlaysrun_sh</title>
<polygon fill="none" stroke="black" points="753,-490.5 699,-490.5 699,-454.5 753,-454.5 753,-490.5"/>
<text text-anchor="middle" x="726" y="-467.82" font-family="Times,serif" font-size="14.00">run.sh</text>
</g>
<!-- cluster_linuxcommon&#45;build -->
<g id="node18" class="node">
<title>cluster_linuxcommon&#45;build</title>
<polygon fill="none" stroke="black" points="909.25,-490.5 808.75,-490.5 808.75,-454.5 909.25,-454.5 909.25,-490.5"/>
<text text-anchor="middle" x="859" y="-467.82" font-family="Times,serif" font-size="14.00">common&#45;build</text>
</g>
<!-- cluster_cptBuilder_connect_node_ -->
<g id="node19" class="node">
<title>cluster_cptBuilder_connect_node_</title>
</g>
<!-- cluster_cptBuilderqemu&#45;&gt;cluster_cptBuilderstage1_profiling -->
<g id="edge2" class="edge">
<title>cluster_cptBuilderqemu&#45;&gt;cluster_cptBuilderstage1_profiling</title>
<path fill="none" stroke="#000000" stroke-opacity="0.266667" d="M990.11,-328.95C985.66,-321.15 980.29,-311.76 975.33,-303.08"/>
<polygon fill="#000000" fill-opacity="0.266667" stroke="#000000" stroke-opacity="0.266667" points="978.53,-301.61 970.52,-294.67 972.45,-305.09 978.53,-301.61"/>
</g>
<!-- cluster_cptBuilderqemu&#45;&gt;cluster_cptBuilderstage3_checkpoint -->
<g id="edge6" class="edge">
<title>cluster_cptBuilderqemu&#45;&gt;cluster_cptBuilderstage3_checkpoint</title>
<path fill="none" stroke="#000000" stroke-opacity="0.266667" d="M1004.18,-328.83C1012.68,-291.37 1032.04,-206.02 1042.31,-160.74"/>
<polygon fill="#000000" fill-opacity="0.266667" stroke="#000000" stroke-opacity="0.266667" points="1045.7,-161.62 1044.5,-151.1 1038.87,-160.07 1045.7,-161.62"/>
</g>
<!-- cluster_cptBuildernemu -->
<g id="node21" class="node">
<title>cluster_cptBuildernemu</title>
<polygon fill="none" stroke="black" points="955,-365.25 901,-365.25 901,-329.25 955,-329.25 955,-365.25"/>
<text text-anchor="middle" x="928" y="-342.57" font-family="Times,serif" font-size="14.00">nemu</text>
</g>
<!-- cluster_cptBuildernemu&#45;&gt;cluster_cptBuilderstage1_profiling -->
<g id="edge3" class="edge">
<title>cluster_cptBuildernemu&#45;&gt;cluster_cptBuilderstage1_profiling</title>
<path fill="none" stroke="#000000" stroke-opacity="0.266667" d="M935.91,-328.95C939.4,-321.32 943.58,-312.17 947.48,-303.65"/>
<polygon fill="#000000" fill-opacity="0.266667" stroke="#000000" stroke-opacity="0.266667" points="950.58,-305.28 951.55,-294.73 944.21,-302.37 950.58,-305.28"/>
</g>
<!-- cluster_cptBuildernemu&#45;&gt;cluster_cptBuilderstage3_checkpoint -->
<g id="edge7" class="edge">
<title>cluster_cptBuildernemu&#45;&gt;cluster_cptBuilderstage3_checkpoint</title>
<path fill="none" stroke="#000000" stroke-opacity="0.266667" d="M938.32,-328.83C959.48,-291.05 1007.93,-204.57 1033.12,-159.59"/>
<polygon fill="#000000" fill-opacity="0.266667" stroke="#000000" stroke-opacity="0.266667" points="1036.14,-161.37 1037.97,-150.94 1030.03,-157.95 1036.14,-161.37"/>
</g>
<!-- cluster_cptBuilderstage2_cluster -->
<g id="node24" class="node">
<title>cluster_cptBuilderstage2_cluster</title>
<polygon fill="none" stroke="black" points="1098.12,-221.25 993.88,-221.25 993.88,-185.25 1098.12,-185.25 1098.12,-221.25"/>
<text text-anchor="middle" x="1046" y="-198.57" font-family="Times,serif" font-size="14.00">stage2_cluster</text>
</g>
<!-- cluster_cptBuilderstage1_profiling&#45;&gt;cluster_cptBuilderstage2_cluster -->
<g id="edge5" class="edge">
<title>cluster_cptBuilderstage1_profiling&#45;&gt;cluster_cptBuilderstage2_cluster</title>
<path fill="none" stroke="#000000" stroke-opacity="0.266667" d="M981.26,-256.95C991.7,-248.45 1004.46,-238.06 1015.88,-228.76"/>
<polygon fill="#000000" fill-opacity="0.266667" stroke="#000000" stroke-opacity="0.266667" points="1017.97,-231.58 1023.51,-222.55 1013.55,-226.15 1017.97,-231.58"/>
</g>
<!-- cluster_cptBuildersimpoint -->
<g id="node23" class="node">
<title>cluster_cptBuildersimpoint</title>
<polygon fill="none" stroke="black" points="1098.12,-293.25 1035.88,-293.25 1035.88,-257.25 1098.12,-257.25 1098.12,-293.25"/>
<text text-anchor="middle" x="1067" y="-270.57" font-family="Times,serif" font-size="14.00">simpoint</text>
</g>
<!-- cluster_cptBuildersimpoint&#45;&gt;cluster_cptBuilderstage2_cluster -->
<g id="edge4" class="edge">
<title>cluster_cptBuildersimpoint&#45;&gt;cluster_cptBuilderstage2_cluster</title>
<path fill="none" stroke="#000000" stroke-opacity="0.266667" d="M1061.81,-256.95C1059.57,-249.49 1056.9,-240.57 1054.39,-232.22"/>
<polygon fill="#000000" fill-opacity="0.266667" stroke="#000000" stroke-opacity="0.266667" points="1057.79,-231.38 1051.57,-222.8 1051.09,-233.39 1057.79,-231.38"/>
</g>
<!-- cluster_cptBuilderstage2_cluster&#45;&gt;cluster_cptBuilderstage3_checkpoint -->
<g id="edge8" class="edge">
<title>cluster_cptBuilderstage2_cluster&#45;&gt;cluster_cptBuilderstage3_checkpoint</title>
<path fill="none" stroke="#000000" stroke-opacity="0.266667" d="M1046.74,-184.95C1047.05,-177.66 1047.43,-168.98 1047.78,-160.79"/>
<polygon fill="#000000" fill-opacity="0.266667" stroke="#000000" stroke-opacity="0.266667" points="1051.27,-161.01 1048.2,-150.87 1044.28,-160.71 1051.27,-161.01"/>
</g>
<!-- Gcheckpoints -->
<g id="node30" class="node">
<title>Gcheckpoints</title>
<polygon fill="#ffe6cc" stroke="#d79b00" stroke-width="2" points="1091.38,-77.25 1006.62,-77.25 1006.62,-41.25 1091.38,-41.25 1091.38,-77.25"/>
<text text-anchor="middle" x="1049" y="-54.58" font-family="Times,serif" font-size="14.00">checkpoints</text>
</g>
<!-- cluster_cptBuilderstage3_checkpoint&#45;&gt;Gcheckpoints -->
<g id="edge11" class="edge">
<title>cluster_cptBuilderstage3_checkpoint&#45;&gt;Gcheckpoints</title>
<path fill="none" stroke="#000000" stroke-opacity="0.266667" d="M1049,-112.95C1049,-105.77 1049,-97.24 1049,-89.15"/>
<polygon fill="#000000" fill-opacity="0.266667" stroke="#000000" stroke-opacity="0.266667" points="1052.5,-89.35 1049,-79.35 1045.5,-89.35 1052.5,-89.35"/>
</g>
<!-- cluster_inputs_connect_node_ -->
<g id="node26" class="node">
<title>cluster_inputs_connect_node_</title>
</g>
<!-- cluster_benchmark_connect_node_ -->
<g id="node27" class="node">
<title>cluster_benchmark_connect_node_</title>
</g>
<!-- cluster_benchmark_connect_node_&#45;&gt;cluster_initramfs_connect_node_ -->
<g id="edge13" class="edge">
<title>cluster_benchmark_connect_node_&#45;&gt;cluster_initramfs_connect_node_</title>
<path fill="none" stroke="#82b366" stroke-width="2" d="M771,-739.25C771,-701.94 771,-629.68 771,-569.92"/>
<polygon fill="#82b366" stroke="#82b366" stroke-width="2" points="774.5,-570.02 771,-560.02 767.5,-570.02 774.5,-570.02"/>
</g>
<!-- cluster_benchmarkrun -->
<g id="node28" class="node">
<title>cluster_benchmarkrun</title>
<polygon fill="none" stroke="black" points="753,-783.25 699,-783.25 699,-747.25 753,-747.25 753,-783.25"/>
<text text-anchor="middle" x="726" y="-760.58" font-family="Times,serif" font-size="14.00">run</text>
</g>
<!-- cluster_benchmarkrun&#45;&gt;cluster_overlaysrun_sh -->
<g id="edge12" class="edge">
<title>cluster_benchmarkrun&#45;&gt;cluster_overlaysrun_sh</title>
<path fill="none" stroke="#000000" stroke-opacity="0.266667" d="M726,-746.93C726,-698.55 726,-561.61 726,-501.91"/>
<polygon fill="#000000" fill-opacity="0.266667" stroke="#000000" stroke-opacity="0.266667" points="729.5,-502.24 726,-492.24 722.5,-502.24 729.5,-502.24"/>
</g>
<!-- cluster_outputs_connect_node_ -->
<g id="node29" class="node">
<title>cluster_outputs_connect_node_</title>
</g>
</g>
</svg>
