<?xml version="1.0" encoding="UTF-8" standalone="no"?>
<!DOCTYPE svg PUBLIC "-//W3C//DTD SVG 1.1//EN"
 "http://www.w3.org/Graphics/SVG/1.1/DTD/svg11.dtd">
<!-- Generated by graphviz version 10.0.1 (0)
 -->
<!-- Title: G Pages: 1 -->
<svg width="162px" height="308px"
 viewBox="0.00 0.00 162.00 307.75" xmlns="http://www.w3.org/2000/svg" xmlns:xlink="http://www.w3.org/1999/xlink">
<g id="graph0" class="graph" transform="scale(1 1) rotate(0) translate(4 303.75)">
<title>G</title>
<text text-anchor="middle" x="77" y="-25.2" font-family="Times,serif" font-size="14.00">Deterload</text>
<text text-anchor="middle" x="77" y="-7.95" font-family="Times,serif" font-size="14.00">Workflow Overview</text>
<g id="clust1" class="cluster">
<title>cluster_builder</title>
<polygon fill="#f5f5f5" stroke="#666666" stroke-width="2" points="12,-106.5 12,-255.75 142,-255.75 142,-106.5 12,-106.5"/>
<text text-anchor="middle" x="77" y="-238.45" font-family="Times,serif" font-size="14.00">builder</text>
</g>
<!-- Gbenchmark -->
<g id="node1" class="node">
<title>Gbenchmark</title>
<polygon fill="#d5e8d4" stroke="#82b366" points="133.75,-299.75 38.25,-299.75 38.25,-263.75 133.75,-263.75 133.75,-299.75"/>
<text text-anchor="middle" x="86" y="-277.07" font-family="Times,serif" font-size="14.00">benchmark</text>
</g>
<!-- cluster_builderimgBuilder -->
<g id="node3" class="node">
<title>cluster_builderimgBuilder</title>
<polygon fill="#dae8fc" stroke="#6c8ebf" points="133.75,-222.5 38.25,-222.5 38.25,-186.5 133.75,-186.5 133.75,-222.5"/>
<text text-anchor="middle" x="86" y="-199.82" font-family="Times,serif" font-size="14.00">imgBuilder</text>
</g>
<!-- Gbenchmark&#45;&gt;cluster_builderimgBuilder -->
<g id="edge2" class="edge">
<title>Gbenchmark&#45;&gt;cluster_builderimgBuilder</title>
<path fill="none" stroke="#82b366" d="M86,-263.3C86,-254.65 86,-244 86,-234.19"/>
<polygon fill="#82b366" stroke="#82b366" points="89.5,-234.37 86,-224.37 82.5,-234.37 89.5,-234.37"/>
</g>
<!-- cluster_builder_connect_node_ -->
<g id="node2" class="node">
<title>cluster_builder_connect_node_</title>
</g>
<!-- cluster_buildercptBuilder -->
<g id="node4" class="node">
<title>cluster_buildercptBuilder</title>
<polygon fill="#f8cecc" stroke="#b85450" points="131.5,-150.5 40.5,-150.5 40.5,-114.5 131.5,-114.5 131.5,-150.5"/>
<text text-anchor="middle" x="86" y="-127.83" font-family="Times,serif" font-size="14.00">cptBuilder</text>
</g>
<!-- cluster_builderimgBuilder&#45;&gt;cluster_buildercptBuilder -->
<g id="edge1" class="edge">
<title>cluster_builderimgBuilder&#45;&gt;cluster_buildercptBuilder</title>
<path fill="none" stroke="#6c8ebf" d="M86,-186.2C86,-178.91 86,-170.23 86,-162.04"/>
<polygon fill="#6c8ebf" stroke="#6c8ebf" points="89.5,-162.12 86,-152.12 82.5,-162.12 89.5,-162.12"/>
</g>
<!-- Gcheckpoints -->
<g id="node5" class="node">
<title>Gcheckpoints</title>
<polygon fill="#ffe6cc" stroke="#d79b00" points="136.38,-78.5 35.62,-78.5 35.62,-42.5 136.38,-42.5 136.38,-78.5"/>
<text text-anchor="middle" x="86" y="-55.83" font-family="Times,serif" font-size="14.00">checkpoints</text>
</g>
<!-- cluster_buildercptBuilder&#45;&gt;Gcheckpoints -->
<g id="edge3" class="edge">
<title>cluster_buildercptBuilder&#45;&gt;Gcheckpoints</title>
<path fill="none" stroke="#b85450" d="M86,-114.2C86,-106.91 86,-98.23 86,-90.04"/>
<polygon fill="#b85450" stroke="#b85450" points="89.5,-90.12 86,-80.12 82.5,-90.12 89.5,-90.12"/>
</g>
</g>
</svg>
